<svg version="1.1" id="_x32_" xmlns="http://www.w3.org/2000/svg" xmlns:xlink="http://www.w3.org/1999/xlink" x="0px" y="0px" viewBox="0 0 512 512" style="width: 256px; height: 256px; opacity: 1;" xml:space="preserve">
<g>
	<path class="st0" d="M510.698,196.593c-3.61-11.2-14.034-18.795-25.794-18.795H329.21L281.791,30.155
		c-3.599-11.2-14.018-18.808-25.791-18.808c-11.772,0-22.192,7.608-25.791,18.808l-47.418,147.642H27.097
		c-11.761,0-22.185,7.594-25.795,18.795c-3.599,11.2,0.436,23.449,9.999,30.302l126.246,90.643l-48.598,147.54
		c-3.694,11.193,0.278,23.47,9.801,30.398c9.529,6.926,22.44,6.897,31.94-0.058L256,403.594l125.312,91.824
		c9.5,6.956,22.411,6.985,31.941,0.058c9.522-6.927,13.494-19.205,9.811-30.398l-48.61-147.54L500.7,226.895
		C510.262,220.042,514.298,207.792,510.698,196.593z" style="fill: #ffb938;stroke:#444444;stroke-width: 25;"></path>
</g>
</svg>
